<?xml version="1.0" encoding="iso-8859-1"?>
<!-- Generator: Adobe Illustrator 19.0.0, SVG Export Plug-In . SVG Version: 6.00 Build 0)  -->
<svg version="1.1" id="Capa_1" xmlns="http://www.w3.org/2000/svg" xmlns:xlink="http://www.w3.org/1999/xlink" x="0px" y="0px"
	 viewBox="0 0 512 512" style="enable-background:new 0 0 512 512;" xml:space="preserve">
<circle style="fill:#D6283B;" cx="256" cy="256" r="256"/>
<path style="fill:#C20231;" d="M512,256c0-18.557-1.993-36.646-5.743-54.082L409.5,105.161l-7.382,12.583l-32.926-32.926
	l-259.119,40.343L126.646,256l163.5,163.5l-117.383,14.523l77.909,77.909c1.773,0.036,3.546,0.067,5.328,0.067
	C397.385,512,512,397.385,512,256z"/>
<path style="fill:#FFE45C;" d="M224.175,282.634h-35.138c-47.717,0-86.537-38.82-86.537-86.537v-90.936h121.675V282.634z
	 M122.5,125.161v70.936c0,36.689,29.849,66.537,66.537,66.537h15.138V125.161H122.5z"/>
<path style="fill:#E0AC19;" d="M322.963,282.634h-35.138V105.161H409.5v90.936C409.5,243.813,370.68,282.634,322.963,282.634z
	 M307.825,262.634h15.138c36.688,0,66.537-29.848,66.537-66.537v-70.936h-81.675V262.634z"/>
<polygon style="fill:#FFEC7C;" points="304.668,418.362 207.332,418.362 245.558,309.247 266.442,309.247 "/>
<g>
	<polygon style="fill:#FFDE1F;" points="266.442,309.247 255.952,309.247 255.952,418.362 304.668,418.362 	"/>
	<path style="fill:#FFDE1F;" d="M256,329.706L256,329.706c-42.325,0-78.404-30.693-85.189-72.47L142.808,84.817h226.384
		l-28.003,172.419C334.404,299.014,298.325,329.706,256,329.706z"/>
</g>
<path style="fill:#F9C41E;" d="M255.952,84.817v244.888c0.016,0,0.032,0.001,0.048,0.001l0,0c42.325,0,78.404-30.693,85.189-72.47
	l28.003-172.419L255.952,84.817L255.952,84.817z"/>
<rect x="172.76" y="400.22" style="fill:#FFDE1F;" width="166.47" height="33.802"/>
<rect x="255.95" y="400.22" style="fill:#F9C41E;" width="83.28" height="33.802"/>
<g>
</g>
<g>
</g>
<g>
</g>
<g>
</g>
<g>
</g>
<g>
</g>
<g>
</g>
<g>
</g>
<g>
</g>
<g>
</g>
<g>
</g>
<g>
</g>
<g>
</g>
<g>
</g>
<g>
</g>
</svg>
